<?xml version="1.0" encoding="utf-8"?>
<!-- Generator: Adobe Illustrator 23.0.6, SVG Export Plug-In . SVG Version: 6.00 Build 0)  -->
<svg version="1.1" id="レイヤー_1" xmlns="http://www.w3.org/2000/svg" xmlns:xlink="http://www.w3.org/1999/xlink" x="0px"
	 y="0px" viewBox="0 0 1369.3 835.5" style="enable-background:new 0 0 1369.3 835.5;" xml:space="preserve">
<style type="text/css">
	.st0{fill:#FFFFFF;stroke:#000000;stroke-miterlimit:10;}
	.st1{fill:none;stroke:#000000;stroke-width:0.25;stroke-miterlimit:10;}
	.st2{fill:#FFFFFF;stroke:#000000;stroke-width:0.25;stroke-miterlimit:10;}
</style>
<path class="st0" d="M547.3-222"/>
<path class="st0" d="M1391.6,83.8"/>
<g>
	<g>
		<path class="st1" d="M63.4,294.5"/>
		<g>
			<path class="st2" d="M893.6,44.1h9.1c-9.2-15.2-19.3-29.9-30.1-43.9h-9.7C873.8,14.2,884.1,28.8,893.6,44.1z"/>
			<path class="st2" d="M923.8,66h8.7c-7.8-15.1-16.4-29.8-25.6-43.9h-9.2C907.2,36.2,915.9,50.9,923.8,66z"/>
			<path class="st2" d="M951.6,88h8.4c-6.6-15-13.9-29.7-21.9-43.9h-8.8C937.5,58.3,944.9,72.9,951.6,88z"/>
			<g>
				<path class="st2" d="M957.3,294.5c0-20.5-1.3-40.6-3.9-60.4h46.5c-4-34.1-11.4-67.2-21.7-99l-54.4-14.6
					C906.2,76.7,882.3,36.2,853,0.1h-14.3c67.1,79.5,107.5,182.2,107.5,294.4s-40.4,214.8-107.5,294.4H853h57.7
					c8.9-12.8,17.3-26,25-39.5h-54c7.5-11.4,14.4-23.3,20.8-35.4l77-64.6c9.6-30.4,16.4-61.9,20.2-94.5h-46.5
					C956,335.2,957.3,315,957.3,294.5z"/>
				<path class="st2" d="M140,0.2h-14.3H68C39.1,41.5,16,87.3,0.2,136.4h48.7C31.2,185.8,21.5,239,21.5,294.5
					c0,61.3,11.8,119.9,33.3,173.5H5.4c11.6,32.4,26.4,63.3,44,92.3h54.9c6.8,9.8,13.9,19.3,21.4,28.6H140
					C72.9,509.4,32.5,406.7,32.5,294.5S72.9,79.7,140,0.2z"/>
			</g>
		</g>
		<g>
			<polygon class="st2" points="1369,323 995.1,323 989.9,318.7 1363.7,318.7 			"/>
			<line class="st1" x1="1345.4" y1="303.3" x2="1369" y2="323"/>
			<line class="st1" x1="989.9" y1="318.7" x2="1002.9" y2="329.6"/>
		</g>
	</g>
	<g>
		<g>
			<polygon class="st2" points="453.2,27.9 465.5,35 416,63.6 358.6,30.4 204.5,119.4 266.1,154.9 420.1,66 469.6,37.4 498.1,20.9 
				481.7,11.5 			"/>
		</g>
		<g>
			<polygon class="st2" points="191.6,378 169.6,390.7 169.6,488.4 253.1,440.2 253.1,414 253.1,342.5 253.1,177.8 191.6,142.3 			
				"/>
			<polygon class="st2" points="187.2,338.4 187.2,373.6 169.6,383.7 169.6,348.6 			"/>
		</g>
	</g>
	<line class="st1" x1="932.5" y1="534.6" x2="1007.5" y2="534.6"/>
	<path class="st2" d="M1084.3,612.9c-8.6,0-16.9,1-25,2.8l-6.5-11.3l0,0l-40.3-69.8h-5l33,57.1l-5.9,8.4l11.3,19.6
		c-42.5,15.6-72.8,56.5-72.8,104.4c0,61.4,49.8,111.2,111.2,111.2s111.2-49.8,111.2-111.2S1145.7,612.9,1084.3,612.9z"/>
	<circle class="st2" cx="926.5" cy="534.6" r="6"/>
</g>
</svg>
