<?xml version="1.0" encoding="utf-8"?>
<!-- Generator: Adobe Illustrator 23.0.6, SVG Export Plug-In . SVG Version: 6.00 Build 0)  -->
<svg version="1.1" id="レイヤー_1" xmlns="http://www.w3.org/2000/svg" xmlns:xlink="http://www.w3.org/1999/xlink" x="0px"
	 y="0px" viewBox="0 0 650.3 745.6" style="enable-background:new 0 0 650.3 745.6;" xml:space="preserve">
<style type="text/css">
	.st0{fill:#999999;stroke:#999999;stroke-width:3;stroke-miterlimit:10;}
</style>
<path class="st0" d="M472.1,132.1c-2.9-2-6.4-3.2-10.2-3.2c-9.8,0-17.7,7.9-17.7,17.7c0,7.4,4.6,13.8,11,16.4l-0.1,0.2
	c93.9,47.5,158.3,144.9,158.3,257.3c0,159.2-129,288.2-288.2,288.2S37,579.7,37,420.5c0-112.5,64.5-209.9,158.4-257.4
	c6.7-2.5,11.4-9,11.4-16.5c0-9.8-7.9-17.7-17.7-17.7c-2.9,0-5.6,0.7-8,1.9l-0.1-0.1C74.6,183.7,1.5,293.5,1.5,420.5
	c0,178.7,144.9,323.6,323.6,323.6s323.7-144.9,323.7-323.6C648.8,294.7,577,185.6,472.1,132.1z"/>
<path class="st0" d="M342.8,19.2L342.8,19.2c-0.2-9.8-8.2-17.7-18-17.7s-17.8,7.9-18,17.7l0,0v364l0,0c0,0.2,0,0.3,0,0.5
	c0,10,8.1,18,18,18c10,0,18-8.1,18-18c0-0.2,0-0.3,0-0.5l0,0V19.2z"/>
</svg>
