<?xml version="1.0" encoding="utf-8"?>
<!-- Generator: Adobe Illustrator 23.0.6, SVG Export Plug-In . SVG Version: 6.00 Build 0)  -->
<svg version="1.1" id="レイヤー_1" xmlns="http://www.w3.org/2000/svg" xmlns:xlink="http://www.w3.org/1999/xlink" x="0px"
	 y="0px" viewBox="0 0 647.3 742.6" style="enable-background:new 0 0 647.3 742.6;" xml:space="preserve">
<style type="text/css">
	.st0{fill:#333333;stroke:#FF8006;stroke-width:3;stroke-miterlimit:10;}
</style>
<path class="st0" d="M470.6,130.6c-2.9-2-6.4-3.2-10.2-3.2c-9.8,0-17.7,7.9-17.7,17.7c0,7.4,4.6,13.8,11,16.4l-0.1,0.2
	c93.9,47.5,158.3,144.9,158.3,257.3c0,159.2-129,288.2-288.2,288.2S35.5,578.2,35.5,419c0-112.5,64.5-209.9,158.4-257.4
	c6.7-2.5,11.4-9,11.4-16.5c0-9.8-7.9-17.7-17.7-17.7c-2.9,0-5.6,0.7-8,1.9l-0.1-0.1C73.1,182.2,0,292,0,419
	c0,178.7,144.9,323.6,323.6,323.6S647.3,597.7,647.3,419C647.3,293.2,575.5,184.1,470.6,130.6z"/>
<path class="st0" d="M341.3,17.7L341.3,17.7c-0.2-9.8-8.2-17.7-18-17.7s-17.8,7.9-18,17.7l0,0v364l0,0c0,0.2,0,0.3,0,0.5
	c0,10,8.1,18,18,18c10,0,18-8.1,18-18c0-0.2,0-0.3,0-0.5l0,0V17.7z"/>
</svg>
