<?xml version="1.0" encoding="utf-8"?>
<!-- Generator: Adobe Illustrator 23.0.6, SVG Export Plug-In . SVG Version: 6.00 Build 0)  -->
<svg version="1.1" id="レイヤー_1" xmlns="http://www.w3.org/2000/svg" xmlns:xlink="http://www.w3.org/1999/xlink" x="0px"
	 y="0px" viewBox="0 0 942.7 461.7" style="enable-background:new 0 0 942.7 461.7;" xml:space="preserve">
<style type="text/css">
	.st0{fill:#232323;}
	.st1{fill:#FF8006;}
	.st2{fill:#FFFFFF;}
	.st3{fill:#E91D7E;}
	.st4{fill:#CFE330;}
</style>
<g>
	<path id="パス_270_1_" class="st0" d="M292.4,81.9c-4.2-2.9-10-2.6-13.8,0.9c-3.5,3.2-4.5,8.4-2.5,12.7c1.2,2.5,3.2,4.5,5.8,5.5
		c0,0-0.1,0.1-0.1,0.1c15,7.6,29,17.3,41.3,28.8c11.9,11.1,22.3,23.9,30.7,37.8c8.3,13.7,14.8,28.5,19.1,44
		c4.4,15.5,6.7,31.5,6.8,47.6c0.1,16.4-2.1,32.8-6.4,48.7c-4.5,16.4-11.5,32.2-20.4,46.6c-8.7,14.1-19.4,26.9-31.6,38
		c-12,10.9-25.5,20.1-39.9,27.3c-14.4,7.2-29.7,12.4-45.4,15.5c-15.8,3.1-32,4.1-48,2.9c-16.5-1.2-32.9-4.8-48.4-10.6
		c-16-5.9-31.1-14.1-44.8-24.3C81.6,393.6,69.8,382,59.9,369C50.1,356.2,42,342.1,36,327.1c-6-14.9-10-30.6-11.8-46.6
		c-1.8-16.1-1.5-32.5,1.1-48.5c2.7-16.5,7.7-32.7,14.8-47.8c8.1-17.1,18.9-33,32-46.7c13.1-13.9,28.5-25.6,45.4-34.5
		c1.9-1,4.1-1.8,5.8-3c1.7-1.1,3-2.8,3.9-4.6c1.7-3.9,1-8.6-1.8-11.8c-3.1-3.5-8.2-4.6-12.5-2.8c-0.9,0.4-1.7,0.7-2.6,1.1
		c-1,0.5-1.9,1-2.9,1.5c-2,1.1-4,2.2-6,3.3c-15.4,8.9-29.6,19.8-42.1,32.4c-12.3,12.4-23,26.5-31.8,41.7
		c-8.7,15.1-15.4,31.4-19.8,48.3c-4.6,17.3-6.8,35.1-6.7,53c0.1,16.8,2.4,33.6,6.7,49.8c4.1,15.6,10.2,30.7,18,44.9
		c7.7,14,17.2,27.2,28,39c10.8,11.8,23,22.3,36.3,31.2c13.4,9,27.8,16.3,43,21.8c15.5,5.6,31.7,9.3,48.2,10.9
		c16.9,1.7,34.1,1.2,50.9-1.4c16.3-2.5,32.2-7,47.3-13.4c14.7-6.2,28.7-14.3,41.6-23.9c12.8-9.6,24.5-20.7,34.7-33
		c10.3-12.4,19-26,26-40.4c7.1-14.6,12.4-30.1,15.7-46c3.5-16.7,4.8-33.9,4-51c-0.8-17.8-4.1-35.5-9.6-52.4
		c-5.4-16.6-13-32.5-22.6-47.1c-9.6-14.8-21.2-28.2-34.3-40C322.1,99.5,307.8,89.7,292.4,81.9z"/>
	<path class="st1" d="M201.3,461.7c-11.9,0-23.9-1-35.6-3.2c-11.4-2.1-22.7-5.1-33.6-9.1c-10.7-3.9-21-8.8-30.9-14.4
		c-9.8-5.7-19.2-12.1-27.9-19.3c-8.7-7.2-16.7-15-24.1-23.5c-7.4-8.6-14.1-17.7-20-27.4c-5.9-9.7-11-20-15.2-30.6
		c-4.3-10.8-7.6-21.9-9.9-33.3c-2.4-11.6-3.7-23.4-4-35.2C-0.3,251,0.9,236.3,3.7,222c2.9-14.8,7.4-29.2,13.5-43
		c5.9-13.4,13.3-26.1,22-37.9c8.2-11.1,17.5-21.4,27.7-30.6c10.2-9.2,21.4-17.3,33.3-24.2c3-1.8,6.1-3.4,9.2-5
		c2.7-1.4,5.3-2.5,8.4-2.4c6.6,0.3,11.9,6.3,11.3,13c-0.3,3.3-2,6.5-4.7,8.5c-1.3,1-2.9,1.6-4.3,2.3c-1.5,0.8-3,1.6-4.5,2.4
		c-5.9,3.2-11.6,6.8-17.1,10.7c-11,7.9-21.2,17-30.1,27.2c-9,10.2-16.8,21.4-23.3,33.4c-5.7,10.7-10.4,21.9-13.8,33.5
		c-3.3,11.1-5.5,22.6-6.6,34.2c-1,11.3-1,22.8,0.2,34.1c1.2,11.3,3.4,22.4,6.7,33.3c3.3,10.8,7.6,21.4,12.8,31.4
		c5.3,10.1,11.5,19.7,18.7,28.6c7.2,9,15.3,17.3,24.1,24.7c9.1,7.6,18.9,14.4,29.4,20c12.9,7,26.8,12.5,41,16.2
		c14.6,3.7,29.6,5.6,44.7,5.5c15.2-0.1,30.3-2.2,45-6.1c13-3.5,25.7-8.5,37.6-14.8c11.3-6,22-13.2,31.8-21.6
		c9.7-8.3,18.5-17.6,26.2-27.8c7.7-10.3,14.3-21.4,19.7-33.1c5-10.8,8.8-22.1,11.5-33.6c2.6-11.2,4.2-22.8,4.5-34.3
		c0.4-11.3-0.3-22.7-2.1-33.9c-1.8-11.2-4.6-22.2-8.5-32.8c-3.8-10.6-8.7-20.9-14.5-30.6c-5.8-9.8-12.6-19.1-20.3-27.6
		c-7.8-8.7-16.4-16.5-25.7-23.5c-4.5-3.4-9.2-6.6-14.1-9.5c-2.5-1.5-5-2.9-7.5-4.3c-1.3-0.7-2.6-1.4-3.9-2c-0.3-0.2-2-0.9-1.9-1.1
		c-4.2-2.3-6.6-7.3-6-12c0.6-4.2,3.5-7.9,7.4-9.5c2.2-0.9,4.6-1.1,6.9-0.6c2.6,0.5,5,2.1,7.3,3.4c4.6,2.4,9,5,13.4,7.8
		c17.4,11,33,24.6,46.3,40.4c14,16.6,25.3,35.5,33.2,55.7c8.2,20.9,12.9,43.1,13.9,65.6c0.7,18.4-1,36.9-5.2,54.8
		c-3.9,16.7-10,32.8-18.1,47.9c-8,15-17.8,28.9-29.3,41.4c-11.4,12.4-24.2,23.4-38.3,32.7c-14.3,9.4-29.7,17-45.9,22.4
		c-16.6,5.6-33.8,9-51.3,10.1C210.1,461.6,205.7,461.7,201.3,461.7z M111.9,82.2c-17.7,8.9-34.1,20.4-48.4,34.1
		c-14.4,13.8-26.8,29.8-36.5,47.3c-10.4,18.8-17.8,39.3-21.7,60.4c-3.6,19.4-4.3,39.3-2.1,58.9c1.9,16.5,5.8,32.8,11.8,48.4
		c5.8,15.2,13.5,29.6,22.8,43c9.2,13.2,20.1,25.3,32.2,35.9c12.2,10.7,25.7,19.9,40.2,27.4c14.6,7.5,30.1,13.2,46.1,16.9
		c16.6,3.8,33.6,5.5,50.6,5c16.9-0.5,33.7-3.1,49.9-7.8c15.7-4.6,30.9-11.1,45.1-19.4c13.9-8.2,26.9-18,38.4-29.3
		c11.6-11.3,21.8-23.9,30.3-37.6c8.7-13.9,15.6-28.9,20.6-44.5c5.1-16,8.2-32.6,9.1-49.3c1.1-20.6-0.9-41.3-6-61.3
		c-5.4-20.8-14.1-40.6-25.8-58.6c-10.8-16.6-24-31.5-39.1-44.2c-7.6-6.3-15.6-12.1-24-17.2c-4.2-2.6-8.5-5-12.9-7.3
		c-2.2-1.1-4.1-2.3-6.7-2.2c-2.1,0.1-4.1,0.8-5.7,2c-3.2,2.4-4.7,6.6-3.7,10.5c0.5,2,1.6,3.8,3.2,5.1c1.2,1,2.6,1.6,4.1,2.1
		c-0.1,0.1-0.1,0.2-0.2,0.2c13.8,7.1,26.6,16,38.1,26.3c11.1,10,20.9,21.4,29.1,33.8c8.2,12.3,14.8,25.7,19.7,39.7
		c4.9,13.9,8.1,28.4,9.5,43.1c1.4,14.8,0.9,29.9-1.4,44.6c-2.4,15.2-6.7,30-12.9,44c-6.7,15.2-15.5,29.6-26,42.4
		c-10.6,12.9-23,24.2-36.8,33.6c-13.9,9.5-29.1,16.9-45,22.2c-18.8,6.2-38.5,9.4-58.3,9.2c-19.5-0.2-38.9-3.6-57.3-10.1
		c-16.3-5.7-31.9-13.8-45.9-24C84.1,396.9,73,386.6,63.4,375c-9.5-11.4-17.5-24-23.8-37.4c-6.3-13.2-11-27.3-13.9-41.6
		c-3-14.5-4.1-29.4-3.4-44.3c0.7-15.1,3.3-30,7.8-44.4c4.8-15.6,11.8-30.5,20.7-44.2c9.6-14.8,21.4-28.2,34.8-39.6
		c6.7-5.7,13.8-10.9,21.3-15.5c3.8-2.3,7.6-4.5,11.5-6.5c1.7-0.9,3.6-1.6,5.1-2.8c1.7-1.4,2.9-3.3,3.4-5.4c1-4.1-0.8-8.5-4.4-10.8
		c-1.6-1-3.4-1.5-5.3-1.6c-1.3,0-2.5,0.2-3.7,0.7C113.3,81.7,112.1,82.4,111.9,82.2z"/>
</g>
<g>
	<path id="パス_271_1_" class="st0" d="M212.4,12c-0.1-4-2.4-7.8-5.9-9.7c-3.5-1.9-7.9-1.7-11.3,0.5c-3.3,2.2-5.1,5.8-5.1,9.7
		c0,3.5,0,7,0,10.5c0,7.2,0,14.3,0,21.5c0,9.8,0,19.5,0,29.3c0,11.4,0,22.7,0,34.1c0,11.9,0,23.7,0,35.6c0,11.3,0,22.5,0,33.8
		c0,9.7,0,19.3,0,29c0,7,0,14,0,21c0,3.3,0,6.6,0,9.9c0,4.6,2,8.8,6.3,10.8c3.6,1.7,8,1.3,11.2-1c3.1-2.2,4.7-5.7,4.7-9.5
		c0-2.3,0-4.6,0-7c0-6.3,0-12.5,0-18.8c0-9.2,0-18.4,0-27.7c0-11,0-22,0-33c0-11.8,0-23.6,0-35.4c0-11.5,0-23,0-34.6
		c0-10.2,0-20.4,0-30.7c0-7.8,0-15.6,0-23.5c0-4.4,0-8.7,0-13.1C212.4,13.1,212.4,12.6,212.4,12z"/>
	<path class="st1" d="M201.3,249.8c-6.9,0-12.2-5.6-12.2-12.4c0-1,0-1.9,0-2.9c0-5,0-10.1,0-15.1c0-8.3,0-16.5,0-24.8
		c0-10.4,0-20.9,0-31.3c0-11.6,0-23.3,0-34.9c0-11.7,0-23.4,0-35.1c0-10.8,0-21.5,0-32.3c0-8.8,0-17.6,0-26.4c0-5.8,0-11.5,0-17.3
		c0-3.9-0.4-7.8,1.7-11.3c2-3.4,5.7-5.6,9.7-5.9c4.7-0.3,9.2,2.2,11.4,6.3c1.1,2.1,1.5,4.4,1.5,6.7c0,4,0,7.9,0,11.9
		c0,7.5,0,14.9,0,22.4c0,10,0,19.9,0,29.9c0,11.4,0,22.8,0,34.3c0,11.8,0,23.6,0,35.3c0,11.1,0,22.3,0,33.4c0,9.5,0,18.9,0,28.4
		c0,6.7,0,13.4,0,20.1c0,2.9,0,5.9,0,8.8C213.3,244.2,208,249.8,201.3,249.8z M201.3,2c-5.6,0-10.1,4.6-10.2,10.2c0,1,0,1.9,0,2.9
		c0,4.9,0,9.9,0,14.8c0,8.1,0,16.2,0,24.2c0,10.3,0,20.6,0,30.9c0,11.4,0,22.8,0,34.2c0,11.6,0,23.3,0,34.9c0,10.7,0,21.5,0,32.2
		c0,8.9,0,17.8,0,26.7c0,6,0,12.1,0,18.1c0,2.5-0.2,5.2,0.1,7.7c0.5,4.8,4.5,8.6,9.3,8.9c4.8,0.3,9.3-2.7,10.5-7.5
		c0.4-1.4,0.3-2.9,0.3-4.3c0-4.1,0-8.1,0-12.2c0-7.5,0-14.9,0-22.4c0-9.9,0-19.8,0-29.7c0-11.2,0-22.5,0-33.7c0-11.7,0-23.4,0-35
		c0-11,0-22,0-33.1c0-9.4,0-18.8,0-28.2c0-6.8,0-13.5,0-20.3c0-3.1,0-6.1,0-9.2C211.4,6.7,206.9,2,201.3,2z"/>
</g>
<g id="グループ_312" transform="translate(603.181 228.846)">
	<path id="パス_272" class="st2" d="M-94.4-7.7"/>
	<path id="パス_273" class="st3" d="M-102.7-45.2c1.6,1.8,1.6,4.6,0,6.4c-0.3,0.3-0.6,0.6-0.9,0.9c-1.8,1.7-3.5,3.5-5.3,5.2
		c-5.2,5.2-10.5,10.4-15.7,15.7c-1.9,1.9-3.8,3.8-5.7,5.7c-0.4,0.4-1.3,1-1.4,1.6c-0.2,0.9,0,2.1,0,3c0,2.1,0,4.1,0,6.2
		c0,6.3,0,12.7,0,19c0,7.7,0,15.4,0,23c0,7.1,0,14.2,0,21.3c0,4.6,0,9.2,0,13.8c0,0.8,0,1.5,0,2.3c-0.1,2.1-1.4,4.1-3.6,4.4
		c-0.8,0.2-1.8,0.1-2.6,0.1c-3.5,0-7,0-10.6,0c-0.9,0-1.9,0-2.8,0c-2.5-0.1-4.4-1.9-4.5-4.4c-0.1-1.8,0-3.6,0-5.4
		c0-4.8,0-9.6,0-14.3c0-6.7,0-13.5,0-20.2c0-7.7,0-15.3,0-23c0-7.6,0-15.1,0-22.7c0-6.4,0-12.8,0-19.3c0-4.3,0-8.5,0-12.8
		c0-1,0-2,0-2.9c0-2.6,1.5-4.8,4.3-4.9c2.5-0.1,5.1,0,7.6,0c2.6,0,5.3-0.1,7.9,0c2.5,0.1,4.3,2,4.4,4.5c0,0.7,0,1.4,0,2.1
		c0,3.5,0,7.1,0,10.6c0,2.2,0,4.3,0,6.5c3-3,6-6,9-9c4.1-4.1,8.2-8.2,12.4-12.4c0.4-0.4,0.7-0.8,1.1-1.1
		C-107.4-47-104.5-46.9-102.7-45.2z"/>
	<path id="パス_274" class="st3" d="M-56.1-57.1c0,2.5-2,4.4-4.5,4.5c-0.7,0-1.5,0-2.2,0c-3.4,0-6.8,0-10.1,0c-0.9,0-1.9,0-2.8,0
		c-2.2-0.1-4.2-1.5-4.5-3.7c-0.1-0.8-0.1-1.6-0.1-2.4c0-1.6,0-3.1,0-4.7c0-2.9,0-5.7,0-8.6c0-1.9,1-3.7,2.8-4.4
		c0.9-0.3,1.9-0.3,2.9-0.3c3.3,0,6.6,0,9.9,0c2.7,0,6.2-0.6,7.8,2c0.7,1,0.7,2.2,0.7,3.3c0,1.4,0,2.8,0,4.2c0,3.1,0,6.2,0,9.4
		C-56.1-57.5-56.1-57.3-56.1-57.1z M-56.1-42c0,1.5,0,3,0,4.5c0,4,0,8,0,12c0,5.8,0,11.5,0,17.3c0,6.7,0,13.5,0,20.2
		c0,6.9,0,13.9,0,20.8c0,6.5,0,12.9,0,19.4c0,5.2,0,10.4,0,15.6c0,3.1,0,6.3,0,9.4c0,0.6,0,1.2,0,1.7c-0.1,2.8-2.2,4.6-4.9,4.6
		c-2.8,0-5.6,0-8.4,0c-2.3,0-4.7,0.3-6.9,0c-2.5-0.4-3.8-2.4-3.8-4.7c0-0.8,0-1.5,0-2.3c0-3.5,0-6.9,0-10.4c0-5.4,0-10.8,0-16.2
		c0-6.5,0-13.1,0-19.6c0-7,0-14,0-21c0-6.7,0-13.3,0-20c0-5.6,0-11.2,0-16.7c0-3.7,0-7.5,0-11.2c0-2.2-0.4-4.9,1.3-6.7
		c1.7-1.8,4.7-1.3,7-1.3c3.2,0,6.4,0,9.6,0c0.7,0,1.3,0,2,0C-58-46.3-56.1-44.4-56.1-42z"/>
	<path id="パス_275" class="st4" d="M75.6-22.3c-5.6,0-11.3,0-16.9,0c-0.8,0-1.6,0-2.4,0c2.5,2.5,5,4.8,7.4,7.4
		c1.8,1.9,1.7,4.7-0.1,6.6c-0.7,0.7-1.4,1.4-2.1,2.1C55.1,0.1,48.7,6.5,42.3,12.9c-1.9,1.9-3.8,3.8-5.7,5.7
		c5.5,5.5,11.1,11,16.6,16.6c7.8,7.7,15.5,15.5,23.3,23.2c0.7,0.7,1.5,1.4,2.2,2.2c0.4,0.5,0.8,0.9,1.1,1.5c0.3,0.5,0.5,1.1,0.5,1.7
		c0,0.3,0,0.7,0,1.1c0,0.3-0.1,0.3-0.2,0.6c-0.2,0.8-0.6,1.3-1,1.9c-0.1,0.2-0.2,0.3-0.3,0.4c0,0-0.1,0-0.1,0
		c-0.2,0.2-0.3,0.3-0.5,0.5c-0.9,0.9-1.8,1.8-2.7,2.6c-7.9,7.9-15.8,15.7-23.6,23.6c-6.1,6.1-12.2,12.2-18.3,18.2
		c-1.9,1.9-4.6,2.1-6.6,0.2c-0.4-0.3-0.7-0.7-1.1-1.1c-2.3-2.3-4.7-4.6-7-7C10.6,96.5,2.4,88.3-5.9,80.1c-7.7-7.6-15.3-15.2-23-22.8
		c-1.6-1.6-3.2-3.1-4.7-4.7c-1.7-1.8-1.7-4.8,0-6.6c1.3-1.4,2.7-2.7,4.1-4.1c3.6-3.6,7.1-7.3,10.8-10.8c1-1,2.4-1.5,3.8-1.3
		c2.6,0.2,4.3,2.5,4.1,5.1c-0.1,1.4-1,2.4-1.9,3.3c-1,1-2.1,2.1-3.1,3.1c-2.7,2.7-5.5,5.4-8.3,8.1c3.2,3.2,6.4,6.4,9.6,9.6
		c5.5,5.5,11.1,11,16.6,16.6C7.8,81.1,13.4,86.7,19,92.3c3.5,3.5,7,7,10.6,10.5c0.4,0.4,0.3,0.5,0.7,0.1c0.6-0.4,1.1-1,1.6-1.5
		c1.6-1.5,3.2-3.1,4.8-4.7c4.4-4.4,8.9-8.8,13.2-13.2c0.6-0.6,1.2-1.2,1.8-1.8c0.6-0.6,1.4-1.2,1.9-1.9c0.2-0.3,0.2-0.1,0.2-0.3
		c-0.1-0.2-0.4-0.4-0.5-0.5c-0.9-0.9-1.7-1.7-2.6-2.6c-3.3-3.3-6.7-6.7-10-10c-4.7-4.7-9.5-9.5-14.2-14.2
		C21.2,46.9,16,41.7,10.8,36.4C5.9,31.6,1,26.7-3.8,21.8c-3.5-3.6-7.1-7.1-10.6-10.7c-1.5-1.5-3-2.9-4.4-4.4
		c-1.7-1.8-1.2-4.4,0.4-6.1c0.5-0.6,1.1-1.1,1.6-1.6c2.4-2.4,4.8-4.8,7.2-7.2c2.5-2.5,5-5,7.6-7.6c4.2-4.2,8.4-8.4,12.7-12.7
		c4.6-4.6,9.2-9.2,13.8-13.8c0.8-0.8,1.7-1.7,2.5-2.5c1.8-1.8,4.5-1.8,6.4,0c0.5,0.4,0.9,0.9,1.4,1.4c2.4,2.4,4.7,4.7,7.1,7.1
		c1.1,1.1,2.3,2.3,3.4,3.4c0.5,0.5,1.2,1.5,1.8,1.8c0.3,0.1,0.6,0.1,0.9,0.1c1,0,2,0,3.1,0c3.3,0,6.7,0,10,0c3.4,0,6.8,0,10.2,0
		c1.7,0,3.6-0.2,5.2,0.1c2.3,0.5,3.7,2.5,3.5,4.8c-0.1,1.2-0.6,2.3-1.5,3c-0.5,0.4-1,0.7-1.6,0.8c-0.2,0.1-0.6,0.2-0.8,0.1
		c-0.4-0.1,0,0-0.3-0.2C75.7-22.3,75.7-22.3,75.6-22.3z"/>
	<path id="パス_276" class="st3" d="M125.6-57.1c0,2.5-2,4.4-4.4,4.5c-0.7,0-1.5,0-2.2,0c-3.4,0-6.9,0-10.3,0c-0.9,0-1.8,0-2.7,0
		c-2.2-0.1-4.2-1.6-4.5-3.9c-0.3-2.3,0-4.8,0-7.2c0-2.8,0-5.6,0-8.4c0-2,1.1-3.8,3.1-4.4c0.9-0.3,1.9-0.2,2.8-0.2c3.3,0,6.7,0,10,0
		c2.7,0,6.2-0.5,7.8,2.4c0.5,1,0.5,2.1,0.5,3.1c0,1.5,0,2.9,0,4.4c0,3.1-0.1,6.2,0,9.2C125.5-57.4,125.4-57.2,125.6-57.1z
		 M125.6-41.9c0,1.5,0,3,0,4.5c0,4,0,8,0,12c0,5.8,0,11.5,0,17.3c0,6.7,0,13.5,0,20.2c0,7,0,14,0,21c0,6.4,0,12.9,0,19.3
		c0,5.2,0,10.4,0,15.5c0,3.1,0,6.3,0,9.4c0,0.6,0,1.1,0,1.7c-0.1,2.9-2.2,4.6-4.9,4.6c-2.9,0-5.7,0-8.6,0c-2.2,0-4.7,0.3-6.9,0
		c-2.5-0.4-3.8-2.4-3.8-4.7c0-0.8,0-1.5,0-2.3c0-3.4,0-6.9,0-10.3c0-5.4,0-10.8,0-16.2c0-6.6,0-13.1,0-19.7c0-7,0-13.9,0-20.9
		c0-6.7,0-13.3,0-20c0-5.6,0-11.2,0-16.7c0-3.7,0-7.4,0-11.1c0-2.2-0.4-5,1.3-6.7c1.7-1.8,4.7-1.3,7-1.3c3.2,0,6.4,0,9.6,0
		c0.7,0,1.3,0,2,0C123.6-46.2,125.5-44.3,125.6-41.9z"/>
	<path id="パス_277" class="st3" d="M148,82.3c-1.3-1.3-1.3-2.8-1.3-4.4c0-1.5,0-3.1,0-4.6c0-5.7,0-11.4,0-17.1
		c0-7.9,0-15.9,0-23.8c0-8.7,0-17.4,0-26.1c0-8,0-16.1,0-24.1c0-5.9,0-11.7,0-17.6c0-1.6,0-3.3,0-4.9c0-0.8-0.1-1.7,0.1-2.5
		c0.4-2.3,2.3-3.7,4.6-3.7c1.4,0,2.7,0,4.1,0c3.5,0,7.1,0,10.6,0c2.3,0,4.4,1.4,4.7,3.9c0.1,0.6,0,1.2,0,1.8c0,3.1,0,6.2,0,9.3
		c0,7.5,0,15,0,22.5c0,0.5,0,1,0,1.4c2.5-2.5,5-5,7.5-7.6c5.2-5.2,10.3-10.4,15.5-15.6c4.2-4.3,8.4-8.5,12.7-12.8
		c0.8-0.8,1.6-1.8,2.6-2.5c1.9-1.2,4.3-1,6,0.6c0.4,0.3,0.7,0.7,1.1,1.1c4.2,4.3,8.5,8.6,12.7,12.9c4.7,4.7,9.4,9.5,14,14.2
		c0.9,0.9,2,1.8,2.8,2.9c0.9,1.2,0.9,2.5,0.9,3.9c0,4,0,7.9,0,11.9c0,6.6,0,13.3,0,19.9c0,7.6,0,15.2,0,22.7c0,6.8,0,13.6,0,20.4
		c0,4.2,0,8.4,0,12.7c0,0.6,0,1.2,0,1.8c-0.1,2.7-2.3,4.8-5,4.5c-2.3-0.3-3.9-2.2-4-4.5c-0.1-2.5,0-5,0-7.5c0-5.9,0-11.8,0-17.6
		c0-7.5,0-15,0-22.5c0-7.2,0-14.4,0-21.6c0-5.1,0-10.3,0-15.4c0-1.2,0-2.4,0-3.6c0-1-1.1-1.7-1.8-2.3c-5.8-5.8-11.5-11.6-17.2-17.4
		c-2.3-2.3-4.5-4.6-6.7-6.9C201.7-25.4,191.5-15.2,181.2-5c-3.2,3.2-6.4,6.4-9.6,9.5c-0.9,0.9-0.8,0.9-0.8,2c0,3.2,0,6.4,0,9.6
		c0,11.4,0,22.9,0,34.3c0,9,0,17.9,0,26.9c0,0.6,0,1.2,0,1.8c-0.1,2.9-2.2,4.5-4.9,4.5c-4.8,0.1-9.5,0.2-14.3,0.2
		C150.3,83.9,149,83.3,148,82.3z"/>
	<path id="長方形_249" class="st4" d="M174.6,12.6c2.5,0,5.1,0,7.6,0c5.9,0,11.8,0,17.6,0c6.4,0,12.9,0,19.3,0
		c4.3,0,8.6,0,12.9,0c0.4,0,0.9-0.1,1.3,0c0.4,0.1,0.2-0.1,0.3,0.2c0.1,0.4,0,1.1,0,1.5c0,0.8,0,1.5,0,2.3c0,1.5,0,2.9,0,4.4
		c0,0.4,0.1,0.7-0.1,0.8c-0.2,0.1-0.8,0-1.1,0c-1.6,0-3.2,0-4.8,0c-5.6,0-11.2,0-16.8,0c-6.5,0-13,0-19.5,0c-4.7,0-9.5,0-14.2,0
		c-0.6,0-1.2,0-1.7,0c-0.1,0-0.7,0.1-0.8,0c-0.2-0.2,0-1.5,0-1.8c0-1.6,0-3.1,0-4.7C174.6,14.4,174.6,13.5,174.6,12.6z"/>
	<path id="長方形_250" class="st4" d="M129.2,12.6c3.3,0,6.7,0,10,0c0.9,0,1.8,0,2.7,0c0.2,0,1.1-0.1,1.3,0c0.1,0.1,0,0.8,0,1
		c0,1,0,1.9,0,2.9c0,1.1,0,2.1,0,3.2c0,0.4,0.2,1.6,0,1.9c-0.3,0.3-2.3,0.1-2.8,0.1c-2.1,0-4.3,0-6.4,0c-1,0-1.9,0-2.9,0
		c-0.4,0-1.3,0.2-1.7,0c-0.3-0.1-0.2-0.2-0.2-0.7c0-1,0-2.1,0-3.1C129.2,16.2,129.2,14.4,129.2,12.6z"/>
	<path id="パス_278" class="st4" d="M60.7,17.1c0,2.5,2,4.5,4.5,4.5c4.9,0,9.7,0,14.6,0c3.6,0,7.2,0,10.7,0c2.2,0,4.4,0.2,6.6,0
		c0.6,0,0.4-0.1,0.4-0.7c0-1.7,0-3.3,0-5c0-0.8,0-1.6,0-2.3c0-0.1,0.1-0.9,0-1c-0.1-0.1-1,0-1.2,0c-6.3,0-12.6,0-18.9,0
		c-3.1,0-6.2,0-9.4,0c-2,0-4.2-0.3-5.8,1.2C61.3,14.6,60.8,15.8,60.7,17.1z"/>
	<path id="パス_279" class="st4" d="M337.5,13.4c-1.8-1.8-3.6-3.6-5.4-5.4c-4.2-4.2-8.4-8.4-12.6-12.6c-4.8-4.8-9.5-9.5-14.3-14.3
		c-3.5-3.5-7-7-10.5-10.5c-0.7-0.7-1.3-1.4-2-2c-3-2.8-7.8-0.9-7.8,3.3c0,4.1,0,8.2,0,12.2c0,6.4,0,12.9,0,19.3c0,1.7-0.1,3.5,0,5.3
		c0,0.5-0.1,0.4,0.4,0.4c1.3,0.2,2.8,0,4.2,0c1.3,0,2.9,0.2,4.2,0c0.5-0.1,0.4,0,0.4-0.6c0-2.3,0-4.5,0-6.8c0-5.9,0-11.8,0-17.7
		c0-0.4,0-0.8,0-1.2c3.4,3.4,6.7,6.7,10.1,10.1c5.4,5.4,10.7,10.7,16.1,16.1c1.2,1.2,2.5,2.5,3.7,3.7c-3.3,0-6.6,0-9.9,0
		c-7.5,0-15,0-22.4,0c-8.1,0-16.1,0-24.2,0c-5.1,0-10.3,0-15.4,0c-0.2,0-1-0.1-1.2,0c-0.3,0.2-0.1,1.4-0.1,1.8c0,1.9,0,3.9,0,5.8
		c0,0.4-0.2,1.4,0.1,1.5c0.2,0.1,0.9,0,1.1,0c0.7,0,1.5,0,2.2,0c2.4,0,4.7,0,7.1,0c7.2,0,14.4,0,21.6,0c8.3,0,16.6,0,24.9,0
		c6.7,0,13.4,0,20,0c1.9,0,3.8,0,5.7,0c1.6,0,3.1,0.1,4.5-1.1C340.2,18.8,339.9,15.1,337.5,13.4z"/>
</g>
</svg>
